<svg width="50" height="30" viewBox="0 0 50 30" fill="none" xmlns="http://www.w3.org/2000/svg">
<path d="M2.72728 30C1.95455 30 1.30728 29.76 0.785464 29.28C0.263646 28.8 0.00182759 28.2067 9.40438e-06 27.5C-0.00180878 26.7933 0.26001 26.2 0.785464 25.72C1.31092 25.24 1.95819 25 2.72728 25H46.3636C47.1364 25 47.7846 25.24 48.3082 25.72C48.8318 26.2 49.0927 26.7933 49.0909 27.5C49.0891 28.2067 48.8273 28.8008 48.3055 29.2825C47.7836 29.7642 47.1364 30.0033 46.3636 30H2.72728ZM2.72728 17.5C1.95455 17.5 1.30728 17.26 0.785464 16.78C0.263646 16.3 0.00182759 15.7067 9.40438e-06 15C-0.00180878 14.2933 0.26001 13.7 0.785464 13.22C1.31092 12.74 1.95819 12.5 2.72728 12.5H46.3636C47.1364 12.5 47.7846 12.74 48.3082 13.22C48.8318 13.7 49.0927 14.2933 49.0909 15C49.0891 15.7067 48.8273 16.3008 48.3055 16.7825C47.7836 17.2642 47.1364 17.5033 46.3636 17.5H2.72728ZM2.72728 5C1.95455 5 1.30728 4.76 0.785464 4.28C0.263646 3.8 0.00182759 3.20667 9.40438e-06 2.5C-0.00180878 1.79333 0.26001 1.2 0.785464 0.72C1.31092 0.24 1.95819 0 2.72728 0H46.3636C47.1364 0 47.7846 0.24 48.3082 0.72C48.8318 1.2 49.0927 1.79333 49.0909 2.5C49.0891 3.20667 48.8273 3.80083 48.3055 4.2825C47.7836 4.76417 47.1364 5.00333 46.3636 5H2.72728Z" fill="black"/>
</svg>
